<svg width="540" height="540" viewBox="0 0 540 540" fill="none" xmlns="http://www.w3.org/2000/svg">
<rect x="10" y="10" width="520" height="520" rx="260" stroke="#9F9CCD" stroke-width="20"/>
<path d="M172.018 164C192.711 164 210.738 167.413 226.098 174.24C241.458 181.067 253.298 190.88 261.618 203.68C269.938 216.48 274.098 231.413 274.098 248.48C274.098 265.547 269.938 280.48 261.618 293.28C253.298 306.08 241.458 315.893 226.098 322.72C210.738 329.547 192.711 332.96 172.018 332.96H139.698V388H64.1775V164H172.018ZM167.218 274.72C177.458 274.72 185.138 272.48 190.258 268C195.378 263.307 197.938 256.8 197.938 248.48C197.938 240.16 195.378 233.76 190.258 229.28C185.138 224.587 177.458 222.24 167.218 222.24H139.698V274.72H167.218ZM385.51 393.12C366.95 393.12 348.817 391.093 331.11 387.04C313.617 382.773 299.217 377.12 287.91 370.08L312.23 315.04C322.897 321.227 334.843 326.24 348.07 330.08C361.297 333.707 373.99 335.52 386.15 335.52C396.603 335.52 404.07 334.56 408.55 332.64C413.03 330.507 415.27 327.413 415.27 323.36C415.27 318.667 412.283 315.147 406.31 312.8C400.55 310.453 390.95 307.893 377.51 305.12C360.23 301.493 345.83 297.653 334.31 293.6C322.79 289.333 312.763 282.507 304.23 273.12C295.697 263.52 291.43 250.613 291.43 234.4C291.43 220.32 295.377 207.52 303.27 196C311.163 184.48 322.897 175.413 338.47 168.8C354.257 162.187 373.35 158.88 395.75 158.88C411.11 158.88 426.15 160.587 440.87 164C455.803 167.2 468.923 172 480.23 178.4L457.51 233.12C435.537 222.027 414.737 216.48 395.11 216.48C375.697 216.48 365.99 221.173 365.99 230.56C365.99 235.04 368.87 238.453 374.63 240.8C380.39 242.933 389.883 245.28 403.11 247.84C420.177 251.04 434.577 254.773 446.31 259.04C458.043 263.093 468.177 269.813 476.71 279.2C485.457 288.587 489.83 301.387 489.83 317.6C489.83 331.68 485.883 344.48 477.99 356C470.097 367.307 458.257 376.373 442.47 383.2C426.897 389.813 407.91 393.12 385.51 393.12Z" fill="#9A97CE"/>
</svg>
